<?xml version="1.0" encoding="utf-8"?><svg xmlns="http://www.w3.org/2000/svg" xmlns:xlink="http://www.w3.org/1999/xlink"><symbol viewBox="0 -45 512 512" id="004-twitter" xmlns="http://www.w3.org/2000/svg"><path d="M194.816 422.71c-85.453 0-152.992-14.929-185.304-40.952l-.63-.508-.57-.57C.638 373-1.877 362.926 1.418 353.043l.3-.82c4-10.004 13.802-16.739 24.423-16.801 21.859-.379 40.984-2.985 58.34-8.043-27.684-12.875-46.915-35.168-58.356-67.434-3.848-10.062-.527-21.218 8.34-27.87 2.187-1.645 4.66-2.887 7.277-3.72-15.383-17.757-26.746-37.964-33.11-59.335l-.198-.665-.137-.68c-2.16-10.808 2.672-21.921 11.527-26.706 3.715-2.133 7.75-3.239 11.801-3.332-4.367-9.407-7.543-19.063-9.426-28.778-5.226-26.921-.914-53.91 12.813-80.214l3.175-6.352a17.759 17.759 0 0113.004-9.563 17.76 17.76 0 0115.356 4.958l5.785 5.792c45.703 47.915 86.64 70.649 157.418 86.204 3.16-27.168 14.906-52.422 33.855-72.297C286.156 13.738 316.27.469 348.398.016h.211c23.442 0 52.52 13.382 70.106 22.82 15.086-4.938 33.262-12.582 52.12-20.664 8.825-4.14 19.704-2.246 26.642 4.691 6.8 6.801 8.687 16.39 5.078 25.711a126.223 126.223 0 01-4.657 11.227c2.582 1.183 4.946 2.789 6.942 4.785 6.035 6.035 8.55 15.48 6.406 24.066l-.23.817c-7.227 23.289-21.11 42.258-39.47 54.164C468.48 290.918 345.52 422.71 194.817 422.71zM38.305 365.036c30.449 17.227 88.476 27.649 156.511 27.649 65.41 0 127.137-28.082 173.805-79.075 47.05-51.41 72.961-119.68 72.961-192.234v-.816c0-6.57 3.617-12.567 9.438-15.653C462.828 98.652 472.39 88 478.61 74.38c-6.415 1.012-12.934-1.563-16.93-6.93a17.621 17.621 0 01-.13-20.957 97.453 97.453 0 006.692-10.59c-16.285 6.84-31.75 12.973-45.176 17.047-4.878 1.477-10.316.899-14.773-1.59-23.902-13.316-46.164-21.277-59.586-21.316-49.527.758-89.797 43.176-89.797 94.605 0 5.317-2.36 10.301-6.465 13.68a17.646 17.646 0 01-14.672 3.695c-81.609-16.078-129.968-40.187-180.257-90.722-7.207 17.27-9.176 34.664-5.844 51.84 3.379 17.398 12.367 34.832 25.996 50.414 5.18 5.914 5.867 14.375 1.71 21.05-4.14 6.653-12.01 9.762-19.577 7.735-5.914-1.586-11.352-3.668-16.508-6.344 10.504 22.816 28.57 43.918 51.281 59.48 6.582 4.512 9.332 12.922 6.692 20.454-2.645 7.543-10.032 12.398-18.016 11.804-8.7-.644-16.406-2.296-23.5-5.082 12.734 25.934 33.082 40.203 64.43 45.657a17.72 17.72 0 0114.465 14.668 17.714 17.714 0 01-9.2 18.43c-26.718 14.163-55.922 21.765-91.14 23.628zm0 0"/></symbol><symbol viewBox="-110 1 511 512" id="013-facebook" xmlns="http://www.w3.org/2000/svg"><path d="M180 512H98.008c-13.695 0-24.836-11.14-24.836-24.836V302.227H25.336C11.64 302.227.5 291.082.5 277.39v-79.246c0-13.696 11.14-24.836 24.836-24.836h47.836v-39.684c0-39.348 12.355-72.824 35.726-96.805C132.375 12.73 165.184 0 203.778 0l62.53.102c13.672.023 24.794 11.164 24.794 24.835v73.579c0 13.695-11.137 24.836-24.829 24.836l-42.101.015c-12.84 0-16.11 2.574-16.809 3.363-1.152 1.31-2.523 5.008-2.523 15.223v31.352h58.27c4.386 0 8.636 1.082 12.288 3.12 7.88 4.403 12.778 12.727 12.778 21.723l-.031 79.247c0 13.687-11.141 24.828-24.836 24.828h-58.47v184.941C204.84 500.86 193.696 512 180 512zm-76.813-30.016h71.633V288.79c0-9.144 7.442-16.582 16.582-16.582h66.727l.027-68.883h-66.758c-9.14 0-16.578-7.437-16.578-16.582v-44.789c0-11.726 1.192-25.062 10.043-35.086 10.696-12.117 27.551-13.515 39.301-13.515l36.922-.016V30.109l-57.332-.093c-62.024 0-100.566 39.703-100.566 103.609v53.117c0 9.14-7.438 16.582-16.579 16.582H30.516v68.883h56.093c9.141 0 16.579 7.438 16.579 16.582zM266.25 30.117h.004zm0 0"/></symbol><symbol viewBox="0 0 512.001 512.001" id="014-instagram" xmlns="http://www.w3.org/2000/svg"><path d="M373.406 0H138.594C62.172 0 0 62.172 0 138.594V373.41C0 449.828 62.172 512 138.594 512H373.41C449.828 512 512 449.828 512 373.41V138.594C512 62.172 449.828 0 373.406 0zm108.578 373.41c0 59.867-48.707 108.574-108.578 108.574H138.594c-59.871 0-108.578-48.707-108.578-108.574V138.594c0-59.871 48.707-108.578 108.578-108.578H373.41c59.867 0 108.574 48.707 108.574 108.578zm0 0"/><path d="M256 116.004c-77.195 0-139.996 62.8-139.996 139.996S178.804 395.996 256 395.996 395.996 333.196 395.996 256 333.196 116.004 256 116.004zm0 249.976c-60.64 0-109.98-49.335-109.98-109.98 0-60.64 49.34-109.98 109.98-109.98 60.645 0 109.98 49.34 109.98 109.98 0 60.645-49.335 109.98-109.98 109.98zM399.344 66.285c-22.813 0-41.367 18.559-41.367 41.367 0 22.813 18.554 41.371 41.367 41.371s41.37-18.558 41.37-41.37-18.558-41.368-41.37-41.368zm0 52.719c-6.258 0-11.352-5.094-11.352-11.352 0-6.261 5.094-11.351 11.352-11.351 6.261 0 11.355 5.09 11.355 11.351 0 6.258-5.094 11.352-11.355 11.352zm0 0"/></symbol><symbol viewBox="0 0 24 24" id="051-vk" xmlns="http://www.w3.org/2000/svg"><path d="M19.915 13.028c-.388-.49-.277-.708 0-1.146.005-.005 3.208-4.431 3.538-5.932l.002-.001c.164-.547 0-.949-.793-.949h-2.624c-.668 0-.976.345-1.141.731 0 0-1.336 3.198-3.226 5.271-.61.599-.892.791-1.225.791-.164 0-.419-.192-.419-.739V5.949c0-.656-.187-.949-.74-.949H9.161c-.419 0-.668.306-.668.591 0 .622.945.765 1.043 2.515v3.797c0 .832-.151.985-.486.985-.892 0-3.057-3.211-4.34-6.886-.259-.713-.512-1.001-1.185-1.001H.9c-.749 0-.9.345-.9.731 0 .682.892 4.073 4.148 8.553C6.318 17.343 9.374 19 12.154 19c1.671 0 1.875-.368 1.875-1.001 0-2.922-.151-3.198.686-3.198.388 0 1.056.192 2.616 1.667C19.114 18.217 19.407 19 20.405 19h2.624c.748 0 1.127-.368.909-1.094-.499-1.527-3.871-4.668-4.023-4.878z"/></symbol><symbol viewBox="0 -3 512 512" id="burger" xmlns="http://www.w3.org/2000/svg"><path d="M294.672 63.957c32.84 5.086 63.3 16.64 88.09 33.41 23.972 16.219 41.597 36.54 50.972 58.77a9.997 9.997 0 009.22 6.12 9.973 9.973 0 003.882-.788 10.003 10.003 0 005.328-13.102c-10.883-25.808-31.008-49.172-58.195-67.566-27.219-18.414-60.496-31.074-96.239-36.61-5.449-.843-10.566 2.895-11.41 8.356-.847 5.453 2.89 10.562 8.352 11.41zm-194.32 75.016c1.582 3.797 5.609 6.355 9.718 6.16 4.059-.196 7.785-3.067 9.02-6.938 1.25-3.918-.149-8.492-3.43-10.988-3.394-2.578-8.383-2.672-11.867-.21-3.707 2.616-5.156 7.792-3.441 11.976zm48.179-37.239c1.598 3.84 5.696 6.426 9.856 6.16 4.011-.261 7.66-3.12 8.89-6.945 1.254-3.89-.152-8.422-3.379-10.93-3.41-2.644-8.484-2.753-11.984-.218-3.64 2.636-5.117 7.773-3.383 11.933zm51.759 37.239c1.581 3.797 5.612 6.355 9.722 6.16 4.058-.196 7.793-3.067 9.027-6.938 1.25-3.922-.156-8.496-3.441-10.988-3.395-2.578-8.38-2.672-11.868-.21-3.703 2.616-5.156 7.792-3.44 11.976zm0 0"/><path d="M512 316.938c0-22.02-14.148-40.786-33.824-47.72v-25.023a42.946 42.946 0 009.074-4.629c11.387-7.652 17.918-19.73 17.918-33.148 0-8.39-2.594-16.332-7.414-23.012a32.269 32.269 0 001.988-18.511c-8.562-45.797-37.969-87.72-82.8-118.051C372.288 16.637 315.131 0 256 0S139.71 16.637 95.059 46.844c-44.832 30.328-74.239 72.254-82.801 118.05a32.247 32.247 0 004.176 22.774c-3.114 5.71-4.735 12.07-4.735 18.75 0 13.418 6.531 25.504 17.922 33.152a43.88 43.88 0 004.203 2.477v27.172C14.148 276.152 0 294.918 0 316.938v2.03c0 14.587 6.215 27.743 16.125 36.985a39.225 39.225 0 00-4.426 18.121c0 10.012 3.64 19.274 10.215 26.512v36.086c0 38.55 31.363 69.918 69.918 69.918h328.336c38.555 0 69.918-31.367 69.918-69.918v-31.55c9.621-7.669 15.082-18.798 15.082-31.052 0-7.683-2.164-14.957-6.207-21.246C507.059 343.855 512 331.98 512 318.97zm-20 0v2.03c0 10.325-5.148 19.466-13.008 25.009a30.65 30.65 0 01-17.578 5.578H306.348l63.77-63.203h91.292c16.867 0 30.59 13.722 30.59 30.586zm-340.434-30.586l1.586 1.59 10.258 10.253-21.473 21.477-33.32-33.32zm94.418 66.132l-61.351-61.347c0-.004-.004-.008-.008-.012l-4.773-4.773h161.812l-66.832 66.093c-.004.004-.008.008-.012.016l-.027.023-14.406 14.407zM31.914 168.566c7.574-40.5 33.98-77.847 74.352-105.16C147.645 35.414 200.82 20 256 20s108.355 15.414 149.734 43.406c40.371 27.313 66.774 64.66 74.352 105.16 1.402 7.512-4.598 14.688-12.223 14.688H44.137c-7.637 0-13.625-7.176-12.223-14.688zm.523 32.512a32.564 32.564 0 0011.7 2.176h423.726c5.52 0 11.07-1.43 15.883-4.137a19.387 19.387 0 011.422 7.297c0 6.645-3.305 12.676-9.07 16.547-5.895 3.96-13.403 4.91-20.145 2.777-3.332-1.054-6.476-2.414-9.914-3.148-3.719-.797-7.523-1.149-11.324-1.149-17.863 0-27.45 6.766-35.149 12.2-6.757 4.773-12.093 8.543-23.609 8.543s-16.852-3.77-23.61-8.54c-7.699-5.44-17.28-12.203-35.148-12.203-17.863 0-27.445 6.766-35.144 12.204-6.758 4.77-12.094 8.539-23.61 8.539-11.515 0-16.855-3.77-23.613-8.543-7.7-5.438-17.281-12.2-35.144-12.2s-27.45 6.766-35.149 12.2c-6.758 4.773-12.098 8.543-23.61 8.543-11.519 0-16.855-3.77-23.616-8.543-7.7-5.438-17.282-12.2-35.149-12.2-7.066 0-13.437 1.2-19.48 3.664-7.137 2.915-15.489 2.176-21.91-2.14-5.766-3.871-9.07-9.903-9.07-16.547-.005-1.84.245-3.629.734-5.34zm23.375 45.738c5.247-.254 10.168-1.578 15.051-3.437 4.871-1.86 10.184-2.227 15.344-1.766 8.828.785 13.656 4.196 19.57 8.367 7.7 5.438 17.282 12.204 35.149 12.204 17.863 0 27.445-6.766 35.144-12.204 6.758-4.77 12.098-8.539 23.614-8.539s16.851 3.77 23.609 8.54c7.7 5.437 17.285 12.203 35.148 12.203 17.864 0 27.446-6.766 35.145-12.204 6.758-4.77 12.098-8.539 23.61-8.539 11.515 0 16.855 3.77 23.613 8.54 7.699 5.437 17.28 12.203 35.144 12.203s27.445-6.766 35.145-12.204c6.761-4.77 12.097-8.539 23.613-8.539 4.086 0 8.098.68 11.906 2.176 3.715 1.461 7.582 2.512 11.555 2.977v19.761H53.824v-19.484a48.252 48.252 0 001.989-.055zM20 316.937c0-16.863 13.723-30.585 30.586-30.585h29.75l54.531 54.535c1.875 1.875 4.418 2.925 7.07 2.925s5.196-1.05 7.07-2.925l28.548-28.547 37.215 37.215H50.586a30.604 30.604 0 01-15.125-4.02C26.234 340.265 20 330.335 20 318.97zm13.352 49.59a50.736 50.736 0 0017.234 3.028H234.77l18.546 18.547c3.836 3.84 10.262 3.847 14.11.03l18.746-18.577H461.41c5.64 0 11.274-.957 16.602-2.801 1.117-.387 2.258-.777 3.308-1.317.34-.175.832-.566 1.235-.539.554.04.699.747.898 1.192 1.082 2.387 1.66 5 1.707 7.62.168 9.435-6.625 17.33-15.496 19.9-5.082 1.476-10.586 1.148-15.484-.852-6.032-2.465-12.403-3.664-19.47-3.664-17.862 0-27.444 6.765-35.144 12.203-6.761 4.773-12.097 8.543-23.613 8.543-11.512 0-16.851-3.77-23.61-8.543-7.698-5.438-17.28-12.203-35.144-12.203s-27.445 6.765-35.148 12.203c-6.758 4.773-12.094 8.543-23.61 8.543s-16.851-3.77-23.613-8.543c-7.7-5.438-17.281-12.203-35.144-12.203-17.864 0-27.446 6.765-35.149 12.203-6.758 4.773-12.094 8.543-23.61 8.543-11.519 0-16.855-3.774-23.613-8.543-7.703-5.438-17.285-12.203-35.152-12.203-7.066 0-13.437 1.199-19.476 3.668-6.528 2.664-14.137 2.312-20.297-1.157-5.45-3.066-9.508-8.324-10.461-14.57a19.733 19.733 0 01-.055-5.594c.07-.539.988-5.093 1.48-4.914zm436.734 70.145c0 27.523-22.395 49.918-49.918 49.918H91.832c-27.523 0-49.918-22.395-49.918-49.918v-23.719c8.211 2.328 17.074 2.164 25.52-.644a45.21 45.21 0 002.809-1.031c3.593-1.47 7.491-2.18 11.917-2.18 11.52 0 16.856 3.765 23.613 8.539 7.704 5.437 17.286 12.203 35.153 12.203 17.863 0 27.445-6.766 35.144-12.203 6.758-4.774 12.098-8.54 23.61-8.54 11.515 0 16.855 3.766 23.613 8.54 7.7 5.437 17.281 12.203 35.148 12.203 17.864 0 27.446-6.766 35.145-12.203 6.758-4.774 12.098-8.54 23.61-8.54 11.515 0 16.855 3.766 23.609 8.54 7.699 5.437 17.285 12.203 35.148 12.203s27.445-6.766 35.145-12.203c6.757-4.774 12.097-8.54 23.613-8.54 2.98 0 5.969.333 8.848 1.133 2.738.762 5.324 1.965 8.062 2.739 5.945 1.676 12.363 2.031 18.461 1.039v22.664zm0 0"/><path d="M225.91 101.734c1.582 3.797 5.613 6.375 9.727 6.164 4.058-.207 7.781-3.066 9.02-6.933 1.257-3.922-.153-8.488-3.43-10.992-3.387-2.59-8.383-2.688-11.864-.215-3.691 2.617-5.199 7.793-3.453 11.976zm45.11 44.079c1.582 3.8 5.609 6.355 9.718 6.16 4.063-.196 7.778-3.07 9.024-6.934 1.261-3.918-.153-8.496-3.434-10.992-3.394-2.582-8.383-2.668-11.867-.211-3.703 2.617-5.156 7.793-3.441 11.976zm-25.532-89.79c3.559 2.372 8.563 2.137 11.871-.574 3.235-2.648 4.528-7.34 3.036-11.254-1.454-3.8-5.305-6.507-9.387-6.488-4.04.023-7.88 2.676-9.309 6.457-1.597 4.234.035 9.336 3.79 11.86zm0 0"/></symbol><symbol viewBox="0 0 513.64 513.64" id="phone-call" xmlns="http://www.w3.org/2000/svg"><path d="M499.66 376.96l-71.68-71.68c-25.6-25.6-69.12-15.359-79.36 17.92-7.68 23.041-33.28 35.841-56.32 30.72-51.2-12.8-120.32-79.36-133.12-133.12-7.68-23.041 7.68-48.641 30.72-56.32 33.28-10.24 43.52-53.76 17.92-79.36l-71.68-71.68c-20.48-17.92-51.2-17.92-69.12 0L18.38 62.08c-48.64 51.2 5.12 186.88 125.44 307.2s256 176.641 307.2 125.44l48.64-48.64c17.921-20.48 17.921-51.2 0-69.12z"/></symbol></svg>